<?xml version="1.0" encoding="UTF-8" standalone="no"?>
<svg
   xmlns:dc="http://purl.org/dc/elements/1.1/"
   xmlns:cc="http://creativecommons.org/ns#"
   xmlns:rdf="http://www.w3.org/1999/02/22-rdf-syntax-ns#"
   xmlns:svg="http://www.w3.org/2000/svg"
   xmlns="http://www.w3.org/2000/svg"
   version="1.1"
   id="svg2"
   viewBox="0 0 5.8208332 5.8208335"
   height="22"
   width="22">
  <defs
     id="defs4" />
  <metadata
     id="metadata7">
    <rdf:RDF>
      <cc:Work
         rdf:about="">
        <dc:format>image/svg+xml</dc:format>
        <dc:type
           rdf:resource="http://purl.org/dc/dcmitype/StillImage" />
        <dc:title></dc:title>
      </cc:Work>
    </rdf:RDF>
  </metadata>
  <g
     id="g4166"
     style="display:inline"
     transform="translate(-0.26458332,0.26458339)">
    <path
       id="path4168"
       transform="matrix(0.26458334,0,0,0.26458334,0.26458307,-0.26458339)"
       d="M 3 5 L 3 13 C 3 15.769915 5.2300853 18 8 18 L 4 18 L 4 19 L 17 19 L 17 18 L 13 18 C 15.769915 18 18 15.769915 18 13 L 18.5 13 A 2.5000001 2.5000001 0 0 0 21 10.5 A 2.5000001 2.5000001 0 0 0 18.5 8 L 18 8 L 18 5 L 3 5 z M 4 6 L 17 6 L 17 8.5 L 17 12.5 L 17 12.666016 C 17 15.066609 15.066609 17 12.666016 17 L 8.3339844 17 C 5.9333915 17 4.0039062 15.066609 4.0039062 12.666016 C 4.0039062 11.442708 4 8.9972276 4 6 z M 5 7 L 5 13 C 5 14.661949 6.5433043 16 8.4609375 16 L 12.539062 16 C 14.456696 16 16 14.661949 16 13 L 16 7 L 5 7 z M 18 9 L 18.5 9 A 1.5 1.5 0 0 1 20 10.5 A 1.5 1.5 0 0 1 18.5 12 L 18 12 L 18 9 z "
       style="opacity:1;fill:#31363b;fill-opacity:1;fill-rule:evenodd;stroke:none;stroke-width:1;stroke-linecap:round;stroke-linejoin:miter;stroke-miterlimit:5;stroke-dasharray:none;stroke-dashoffset:0;stroke-opacity:1" />
  </g>
</svg>
