<?xml version="1.0" encoding="UTF-8" standalone="no"?>
<svg
   xmlns:dc="http://purl.org/dc/elements/1.1/"
   xmlns:cc="http://creativecommons.org/ns#"
   xmlns:rdf="http://www.w3.org/1999/02/22-rdf-syntax-ns#"
   xmlns:svg="http://www.w3.org/2000/svg"
   xmlns="http://www.w3.org/2000/svg"
   xmlns:xlink="http://www.w3.org/1999/xlink"
   version="1.1"
   id="svg2"
   width="48"
   height="48">
  <defs
     id="defs4">
    <linearGradient
       id="linearGradient4905">
      <stop
         id="stop4907"
         offset="0"
         style="stop-color:#c24d2e;stop-opacity:0.78431374" />
      <stop
         id="stop4909"
         offset="1"
         style="stop-color:#c44e2e;stop-opacity:0" />
    </linearGradient>
    <linearGradient
       gradientUnits="userSpaceOnUse"
       y2="47.12505"
       x2="0"
       y1="32.12505"
       id="0"
       xlink:href="#1"
       gradientTransform="matrix(0.842488,0,0,0.842488,-45.33327,-9.01692)" />
    <linearGradient
       id="1">
      <stop
         id="stop8"
         stop-color="#00a199" />
      <stop
         id="stop10"
         stop-opacity="0.988235"
         stop-color="#00f89a"
         offset="1" />
    </linearGradient>
    <linearGradient
       gradientUnits="userSpaceOnUse"
       y2="52.12505"
       x2="0"
       y1="22.12505"
       id="2"
       xlink:href="#1"
       gradientTransform="matrix(0.87507178,0,0,0.83141382,-47.95671,-8.00257)" />
    <linearGradient
       gradientTransform="translate(-433.56801,-497.79021)"
       gradientUnits="userSpaceOnUse"
       x2="0"
       y2="503.79999"
       y1="543.79999"
       id="a">
      <stop
         id="stop7"
         stop-color="#c6cdd1" />
      <stop
         id="stop9"
         stop-color="#e0e5e7"
         offset="1" />
    </linearGradient>
    <linearGradient
       gradientTransform="translate(4.8748311,-4.1904275)"
       gradientUnits="userSpaceOnUse"
       y2="62.009792"
       x2="86.846565"
       y1="22.009792"
       x1="86.846565"
       id="linearGradient4911"
       xlink:href="#linearGradient4905" />
  </defs>
  <metadata
     id="metadata13">
    <rdf:RDF>
      <cc:Work
         rdf:about="">
        <dc:format>image/svg+xml</dc:format>
        <dc:type
           rdf:resource="http://purl.org/dc/dcmitype/StillImage" />
        <dc:title></dc:title>
      </cc:Work>
    </rdf:RDF>
  </metadata>
  <g
     transform="translate(-66.779818,-13.73742)"
     id="g4408"
     style="display:inline;opacity:1">
    <g
       transform="translate(0.0584179,-0.0819455)"
       id="g4198">
      <path
         style="opacity:0.98999999;fill:#502a28;fill-opacity:1;fill-rule:evenodd;stroke:none;stroke-width:1;stroke-linecap:butt;stroke-linejoin:miter;stroke-miterlimit:0;stroke-dasharray:none;stroke-dashoffset:0;stroke-opacity:1"
         d="M 96.016491,18.029324 C 90.12318,17.914796 83.567375,21.072077 78.668835,26.392605 72.582341,33.016988 70.06457,43.576192 72.68446,48.07034 c 1.276326,2.189399 2.364503,2.999338 3.158203,3.015625 0.7937,0.01628 1.293745,-0.760357 1.396484,-1.746094 0.69739,-6.691348 5.324267,-10.835772 11.994141,-12.505859 6.64105,-1.662871 11.538462,-7.013794 12.332032,-11.746094 0.0704,-0.41978 0.12725,-0.873267 0.12695,-1.255859 -0.002,-3.134217 -2.493745,-5.684547 -5.578123,-5.78711 -0.03339,-0.0017 -0.06403,-0.01491 -0.09766,-0.01563 z m 9.583989,6.523438 c -0.79371,-0.01628 -1.29375,0.760357 -1.39649,1.746093 -0.69739,6.691348 -5.324266,10.835774 -11.99414,12.50586 -6.641049,1.662872 -11.538464,7.011839 -12.332031,11.74414 -0.07039,0.419781 -0.127253,0.875221 -0.126953,1.257813 0.0025,3.134217 2.491795,5.684545 5.576172,5.787109 0.03339,0.0017 0.06402,0.0149 0.09766,0.01563 5.893311,0.114528 12.449111,-3.042757 17.347652,-8.363281 6.0865,-6.624384 8.60622,-17.183586 5.98633,-21.677734 -1.27633,-2.189399 -2.3645,-2.999338 -3.1582,-3.015625 z"
         id="path4410" />
      <path
         style="opacity:0.98999999;fill:url(#linearGradient4911);fill-opacity:1;fill-rule:evenodd;stroke:none;stroke-width:1;stroke-linecap:butt;stroke-linejoin:miter;stroke-miterlimit:0;stroke-dasharray:none;stroke-dashoffset:0;stroke-opacity:1"
         d="M 96.016491,18.029324 C 90.12318,17.914796 83.567375,21.072077 78.668835,26.392605 72.582341,33.016988 70.06457,43.576192 72.68446,48.07034 c 1.276326,2.189399 2.364503,2.999338 3.158203,3.015625 0.7937,0.01628 1.293745,-0.760357 1.396484,-1.746094 0.69739,-6.691348 5.324267,-10.835772 11.994141,-12.505859 6.64105,-1.662871 11.538462,-7.013794 12.332032,-11.746094 0.0704,-0.41978 0.12725,-0.873267 0.12695,-1.255859 -0.002,-3.134217 -2.493745,-5.684547 -5.578123,-5.78711 -0.03339,-0.0017 -0.06403,-0.01491 -0.09766,-0.01563 z m 9.583989,6.523438 c -0.79371,-0.01628 -1.29375,0.760357 -1.39649,1.746093 -0.69739,6.691348 -5.324266,10.835774 -11.99414,12.50586 -6.641049,1.662872 -11.538464,7.011839 -12.332031,11.74414 -0.07039,0.419781 -0.127253,0.875221 -0.126953,1.257813 0.0025,3.134217 2.491795,5.684545 5.576172,5.787109 0.03339,0.0017 0.06402,0.0149 0.09766,0.01563 5.893311,0.114528 12.449111,-3.042757 17.347652,-8.363281 6.0865,-6.624384 8.60622,-17.183586 5.98633,-21.677734 -1.27633,-2.189399 -2.3645,-2.999338 -3.1582,-3.015625 z"
         id="path4903" />
      <path
         style="opacity:0.98999999;fill:#40201f;fill-opacity:1;fill-rule:evenodd;stroke:none;stroke-width:1;stroke-linecap:butt;stroke-linejoin:miter;stroke-miterlimit:0;stroke-dasharray:none;stroke-dashoffset:0;stroke-opacity:1"
         d="m 104.23251,47.476092 c -0.28552,0.348592 -0.57322,0.694934 -0.87667,1.025206 -4.898548,5.320525 -11.455704,8.479262 -17.349014,8.364734 -0.03364,-7.12e-4 -0.06317,-0.01436 -0.09657,-0.01605 -3.084377,-0.102564 -5.575743,-2.652095 -5.578216,-5.786313 -3.01e-4,-0.382591 0.05582,-0.838052 0.126211,-1.257832 0.280573,-1.673142 1.084201,-3.420774 2.286628,-5.058078 -1.528397,1.843142 -2.544424,3.871408 -2.868,5.801 -0.07039,0.419779 -0.126512,0.87524 -0.126212,1.257832 0.0025,3.134217 2.492636,5.685286 5.577013,5.78785 0.03339,0.0017 0.06413,0.0138 0.09777,0.01451 5.89331,0.114528 12.449263,-3.042671 17.34781,-8.363195 0.51551,-0.561068 0.99588,-1.158224 1.45925,-1.769664 z"
         id="path4239" />
      <path
         style="opacity:0.98999999;fill:#40201f;fill-opacity:1;fill-rule:evenodd;stroke:none;stroke-width:1;stroke-linecap:butt;stroke-linejoin:miter;stroke-miterlimit:0;stroke-dasharray:none;stroke-dashoffset:0;stroke-opacity:1"
         d="m 99.267308,30.165943 c -2.220004,2.688225 -5.541178,4.980448 -9.486889,5.968426 -4.061117,1.016875 -7.357632,2.956331 -9.478067,5.824046 2.121837,-2.487144 5.20683,-4.191839 8.930396,-5.124192 4.284462,-1.072798 7.834994,-3.682152 10.03456,-6.66828 z M 77.779342,27.434872 c -5.431271,6.642874 -7.581746,16.368895 -5.094554,20.635412 1.276326,2.189399 2.362316,2.999068 3.156016,3.015354 0.531269,0.0109 0.916617,-0.350808 1.15374,-0.875351 -0.17736,0.112789 -0.377606,0.180185 -0.60607,0.175498 -0.793701,-0.01629 -1.87969,-0.825955 -3.156015,-3.015354 -2.401378,-4.119313 -0.476444,-13.32588 4.546883,-19.935559 z"
         id="path4888" />
      <path
         style="opacity:0.98999999;fill:#c44e2e;fill-opacity:1;fill-rule:evenodd;stroke:none;stroke-width:1;stroke-linecap:butt;stroke-linejoin:miter;stroke-miterlimit:0;stroke-dasharray:none;stroke-dashoffset:0;stroke-opacity:1"
         d="m 106.61279,24.937352 c -0.37471,-0.260157 -0.71344,-0.378379 -1.01107,-0.384487 -0.55318,-0.01135 -0.95377,0.375081 -1.18664,0.93641 0.1684,-0.09806 0.35792,-0.15324 0.57036,-0.148882 0.7937,0.01629 1.87969,0.825956 3.15601,3.015355 2.3946,4.107688 0.48657,13.273355 -4.50509,19.878981 5.45048,-6.643578 7.61254,-16.393171 5.12137,-20.666509 -0.7977,-1.368374 -1.52041,-2.197273 -2.14494,-2.630868 z"
         id="path4893" />
      <path
         style="opacity:0.98999999;fill:#270808;fill-opacity:1;fill-rule:evenodd;stroke:none;stroke-width:1;stroke-linecap:butt;stroke-linejoin:miter;stroke-miterlimit:0;stroke-dasharray:none;stroke-dashoffset:0;stroke-opacity:1"
         d="m 92.410417,39.635776 c 3.263839,0.177461 8.461833,-1.151364 10.676623,-3.767068 2.95304,-3.487605 3.36924,-8.121241 1.46691,-9.731989 -0.0851,-0.07202 -0.17944,-0.131792 -0.27233,-0.19143 -0.0259,0.118008 -0.0629,0.2279 -0.0761,0.353941 -0.69739,6.691348 -5.32432,10.834742 -11.994193,12.504832 -0.553562,0.138613 -1.089084,0.304174 -1.614861,0.483574 0.479207,0.189148 1.092303,0.308903 1.81393,0.348139 z"
         id="path4418" />
      <path
         style="opacity:0.98999999;fill:#c44e2e;fill-opacity:1;fill-rule:evenodd;stroke:none;stroke-width:1;stroke-linecap:butt;stroke-linejoin:miter;stroke-miterlimit:0;stroke-dasharray:none;stroke-dashoffset:0;stroke-opacity:1"
         d="m 99.664545,19.428081 c -0.963574,-0.825951 -2.200292,-1.339151 -3.549707,-1.384022 -0.03339,-0.0017 -0.06414,-0.0138 -0.09777,-0.01451 -5.89331,-0.114528 -12.449267,3.042666 -17.347807,8.363195 -0.531864,0.578867 -1.025923,1.195499 -1.502252,1.827781 0.277755,-0.338004 0.55641,-0.674951 0.851066,-0.995647 4.89854,-5.320529 11.455701,-8.479262 17.349011,-8.364734 0.03363,7.06e-4 0.06318,0.01435 0.09657,0.01605 3.084377,0.102563 5.575744,2.652095 5.578214,5.786312 3e-4,0.382592 -0.0558,0.838053 -0.12621,1.257832 -0.27858,1.661267 -1.07356,3.395769 -2.261685,5.023036 1.552995,-1.857041 2.585005,-3.905652 2.911665,-5.853632 0.0704,-0.419779 0.12652,-0.87524 0.12621,-1.257832 -0.001,-1.762997 -0.78842,-3.341892 -2.027305,-4.403829 z"
         id="path4898" />
      <path
         id="path4443"
         d="m 89.032439,36.002299 c -3.26384,-0.177461 -8.461837,1.151364 -10.676621,3.767068 -2.953047,3.487605 -3.369243,8.12124 -1.466917,9.73199 0.08506,0.07202 0.179386,0.131871 0.272337,0.191429 0.02592,-0.118007 0.06294,-0.2279 0.07608,-0.35394 0.697388,-6.691348 5.324314,-10.834742 11.994187,-12.504832 0.553563,-0.138613 1.089084,-0.304175 1.614861,-0.483574 -0.479207,-0.189149 -1.092302,-0.308904 -1.813929,-0.348139 z"
         style="opacity:0.98999999;fill:#260808;fill-opacity:1;fill-rule:evenodd;stroke:none;stroke-width:1;stroke-linecap:butt;stroke-linejoin:miter;stroke-miterlimit:0;stroke-dasharray:none;stroke-dashoffset:0;stroke-opacity:1" />
    </g>
  </g>
</svg>
