<?xml version="1.0" encoding="UTF-8" standalone="no"?>
<svg
   xmlns:dc="http://purl.org/dc/elements/1.1/"
   xmlns:cc="http://creativecommons.org/ns#"
   xmlns:rdf="http://www.w3.org/1999/02/22-rdf-syntax-ns#"
   xmlns:svg="http://www.w3.org/2000/svg"
   xmlns="http://www.w3.org/2000/svg"
   version="1.1"
   id="svg2"
   viewBox="0 0 5.8208332 5.8208335"
   height="22"
   width="22">
  <defs
     id="defs4" />
  <metadata
     id="metadata7">
    <rdf:RDF>
      <cc:Work
         rdf:about="">
        <dc:format>image/svg+xml</dc:format>
        <dc:type
           rdf:resource="http://purl.org/dc/dcmitype/StillImage" />
        <dc:title></dc:title>
      </cc:Work>
    </rdf:RDF>
  </metadata>
  <g
     transform="translate(-0.26458332,0.26458339)"
     style="display:inline"
     id="g4139">
    <path
       style="opacity:1;fill:#31363b;fill-opacity:1;fill-rule:evenodd;stroke:none;stroke-width:1;stroke-linecap:round;stroke-linejoin:miter;stroke-miterlimit:5;stroke-dasharray:none;stroke-dashoffset:0;stroke-opacity:1"
       d="m 3,5 0,8 c 0,2.769915 2.2300853,5 5,5 l -4,0 0,1 13,0 0,-1 -4,0 c 2.769915,0 5,-2.230085 5,-5 l 0.5,0 A 2.5000001,2.5000001 0 0 0 21,10.5 2.5000001,2.5000001 0 0 0 18.5,8 L 18,8 18,5 3,5 Z m 1,1 13,0 0,6.666016 C 17,15.066609 15.066609,17 12.666016,17 L 8.3339844,17 C 5.9333915,17 4.0039063,15.066609 4.0039062,12.666016 4.0039062,11.442708 4,8.9972276 4,6 Z m 14,3 0.5,0 A 1.5,1.5 0 0 1 20,10.5 1.5,1.5 0 0 1 18.5,12 L 18,12 18,9 Z M 5.2109375,14 c 0.4749286,1.164616 1.7396169,2 3.25,2 l 4.0781245,0 c 1.510384,0 2.775073,-0.835384 3.25,-2 L 5.2109375,14 Z"
       transform="matrix(0.26458334,0,0,0.26458334,0.26458307,-0.26458339)"
       id="path4141" />
    <g
       id="g4167">
      <path
         id="rect4147"
         d="m 4.7624998,3.1750002 0.79375,0 0,1.8520832 -0.79375,0 z"
         style="opacity:1;fill:#da4453;fill-opacity:1;fill-rule:nonzero;stroke:none;stroke-width:1;stroke-linecap:butt;stroke-linejoin:miter;stroke-miterlimit:4;stroke-dasharray:1, 2;stroke-dashoffset:0;stroke-opacity:1" />
      <path
         id="rect4165"
         d="m 3.4395833,3.1750002 0.79375,0 0,1.8520832 -0.79375,0 z"
         style="opacity:1;fill:#da4453;fill-opacity:1;fill-rule:nonzero;stroke:none;stroke-width:1;stroke-linecap:butt;stroke-linejoin:miter;stroke-miterlimit:4;stroke-dasharray:1, 2;stroke-dashoffset:0;stroke-opacity:1" />
    </g>
  </g>
</svg>
