<?xml version="1.0" encoding="UTF-8" standalone="no"?>
<svg
   xmlns:dc="http://purl.org/dc/elements/1.1/"
   xmlns:cc="http://creativecommons.org/ns#"
   xmlns:rdf="http://www.w3.org/1999/02/22-rdf-syntax-ns#"
   xmlns:svg="http://www.w3.org/2000/svg"
   xmlns="http://www.w3.org/2000/svg"
   version="1.1"
   id="svg2"
   viewBox="0 0 22 22">
  <metadata
     id="metadata10">
    <rdf:RDF>
      <cc:Work
         rdf:about="">
        <dc:format>image/svg+xml</dc:format>
        <dc:type
           rdf:resource="http://purl.org/dc/dcmitype/StillImage" />
        <dc:title></dc:title>
      </cc:Work>
    </rdf:RDF>
  </metadata>
  <defs
     id="defs3051">
    <style
       id="current-color-scheme"
       type="text/css">
      .ColorScheme-Text {
        color:#4d4d4d;
      }
      </style>
  </defs>
  <g
     id="layer1">
    <path
       id="path4410"
       d="M 13.221726,2.6964278 C 10.748998,2.6483736 7.9982977,3.9731131 5.9429571,6.2055122 3.389172,8.9849862 2.33276,13.415441 3.4320194,15.301107 c 0.5355238,0.918632 0.9921036,1.258467 1.325126,1.265302 0.3330224,0.0069 0.5428325,-0.319033 0.5859399,-0.73263 0.2926125,-2.807572 2.233968,-4.546498 5.0325297,-5.247237 2.786466,-0.6977111 4.841334,-2.9428639 5.174303,-4.9284528 0.02954,-0.1761322 0.05339,-0.3664074 0.05326,-0.5269366 -8.39e-4,-1.3150615 -1.046333,-2.3851352 -2.340484,-2.4281684 -0.01401,-7.132e-4 -0.02687,-0.00626 -0.04098,-0.00656 z m 4.021273,2.7371191 c -0.333027,-0.00683 -0.542834,0.3190321 -0.585942,0.7326295 -0.292613,2.8075712 -2.233969,4.5464986 -5.03253,5.2472376 -2.7864666,0.697711 -4.841335,2.942044 -5.1743016,4.927633 -0.029534,0.176132 -0.053393,0.367227 -0.053268,0.527756 0.00104,1.315062 1.0455129,2.385133 2.3396628,2.428169 0.01401,7.13e-4 0.026861,0.0063 0.040976,0.0066 2.4727288,0.04806 5.2234268,-1.276686 7.2787688,-3.509083 2.553788,-2.779471 3.611018,-7.2099254 2.511758,-9.0955904 C 18.032598,5.7802187 17.576021,5.4403825 17.242999,5.4335488 Z"
       style="display:inline;opacity:1;fill:#31363b;fill-opacity:1;fill-rule:evenodd;stroke:none;stroke-width:1;stroke-linecap:butt;stroke-linejoin:miter;stroke-miterlimit:0;stroke-dasharray:none;stroke-dashoffset:0;stroke-opacity:1" />
  </g>
</svg>
