<?xml version="1.0" encoding="UTF-8" standalone="no"?>
<!-- Created with Inkscape (http://www.inkscape.org/) -->

<svg
   xmlns:dc="http://purl.org/dc/elements/1.1/"
   xmlns:cc="http://creativecommons.org/ns#"
   xmlns:rdf="http://www.w3.org/1999/02/22-rdf-syntax-ns#"
   xmlns:svg="http://www.w3.org/2000/svg"
   xmlns="http://www.w3.org/2000/svg"
   xmlns:sodipodi="http://sodipodi.sourceforge.net/DTD/sodipodi-0.dtd"
   xmlns:inkscape="http://www.inkscape.org/namespaces/inkscape"
   width="22"
   height="22"
   viewBox="0 0 5.8208332 5.8208335"
   id="svg2"
   version="1.1"
   inkscape:version="0.91 r13725"
   sodipodi:docname="koffeebreak-break-2-4.svg"
   inkscape:export-filename="/home/fablissimo/face2.png"
   inkscape:export-xdpi="90"
   inkscape:export-ydpi="90">
  <defs
     id="defs4" />
  <sodipodi:namedview
     id="base"
     pagecolor="#ffffff"
     bordercolor="#666666"
     borderopacity="1.0"
     inkscape:pageopacity="0.0"
     inkscape:pageshadow="2"
     inkscape:zoom="15.999999"
     inkscape:cx="3.8073522"
     inkscape:cy="12.588156"
     inkscape:document-units="px"
     inkscape:current-layer="g4166"
     showgrid="true"
     inkscape:window-width="1366"
     inkscape:window-height="713"
     inkscape:window-x="0"
     inkscape:window-y="0"
     inkscape:window-maximized="1"
     units="px"
     inkscape:showpageshadow="true"
     borderlayer="true"
     inkscape:snap-intersection-paths="false"
     inkscape:object-nodes="true"
     inkscape:snap-bbox="true"
     inkscape:snap-global="true"
     inkscape:snap-midpoints="false"
     inkscape:snap-page="true"
     inkscape:bbox-nodes="true"
     inkscape:snap-bbox-edge-midpoints="false"
     inkscape:snap-center="false"
     inkscape:bbox-paths="false"
     inkscape:snap-bbox-midpoints="false"
     inkscape:object-paths="false"
     inkscape:snap-smooth-nodes="false"
     inkscape:snap-object-midpoints="false"
     inkscape:snap-text-baseline="true"
     showguides="true"
     inkscape:guide-bbox="true"
     fit-margin-top="3"
     fit-margin-left="3"
     fit-margin-right="3"
     fit-margin-bottom="3">
    <inkscape:grid
       type="xygrid"
       id="grid4160"
       originx="-0.26458331"
       originy="-0.26458349" />
  </sodipodi:namedview>
  <metadata
     id="metadata7">
    <rdf:RDF>
      <cc:Work
         rdf:about="">
        <dc:format>image/svg+xml</dc:format>
        <dc:type
           rdf:resource="http://purl.org/dc/dcmitype/StillImage" />
        <dc:title />
      </cc:Work>
    </rdf:RDF>
  </metadata>
  <g
     transform="translate(-0.26458332,0.26458339)"
     style="display:inline"
     inkscape:label="cup"
     id="g4166"
     inkscape:groupmode="layer">
    <path
       style="opacity:1;fill:#31363b;fill-opacity:1;fill-rule:evenodd;stroke:none;stroke-width:1;stroke-linecap:round;stroke-linejoin:miter;stroke-miterlimit:5;stroke-dasharray:none;stroke-dashoffset:0;stroke-opacity:1"
       d="M 3 5 L 3 13 C 3 15.769915 5.2300853 18 8 18 L 4 18 L 4 19 L 17 19 L 17 18 L 13 18 C 15.769915 18 18 15.769915 18 13 L 18.5 13 A 2.5000001 2.5000001 0 0 0 21 10.5 A 2.5000001 2.5000001 0 0 0 18.5 8 L 18 8 L 18 5 L 3 5 z M 4 6 L 17 6 L 17 12.666016 C 17 15.066609 15.066609 17 12.666016 17 L 8.3339844 17 C 5.9333915 17 4.0039063 15.066609 4.0039062 12.666016 C 4.0039062 11.442708 4 8.9972276 4 6 z M 18 9 L 18.5 9 A 1.5 1.5 0 0 1 20 10.5 A 1.5 1.5 0 0 1 18.5 12 L 18 12 L 18 9 z M 5 10 L 5 13 C 5 14.661949 6.5433043 16 8.4609375 16 L 12.539062 16 C 14.456696 16 16 14.661949 16 13 L 16 10 L 5 10 z "
       transform="matrix(0.26458334,0,0,0.26458334,0.26458307,-0.26458339)"
       id="path4168" />
  </g>
</svg>
